# AST/ASF file generated using VICON BodyLanguage
# -----------------------------------------------
:version 1.10
:name VICON
:units
  mass 1.0
  length 0.45
  angle deg
:documentation
   .ast/.asf automatically generated from VICON data using
   VICON BodyBuilder and BodyLanguage model FoxedUp or BRILLIANT.MOD
:root
   order TX TY TZ RX RY RZ
   axis XYZ
   position 0 0 0  
   orientation 0 0 0 
:bonedata
  begin
     id 1 
     name lhipjoint
     direction 0.643822 -0.745931 0.170529 
     length 2.62041 
     axis 0 0 0  XYZ
  end
  begin
     id 2 
     name lfemur
     direction 0.34202 -0.939693 0  
     length 7.92179  
     axis 0 0 20  XYZ
    dof rx ry rz
    limits (-160.0 20.0)
           (-70.0 70.0)
           (-60.0 70.0)
  end
  begin
     id 3 
     name ltibia
     direction 0.34202 -0.939693 0   
     length 8.16326   
     axis 0 0 20   XYZ
    dof rx
    limits (-10.0 170.0)
  end
  begin
     id 4 
     name lfoot
     direction 0.0837341 -0.230058 0.969568   
     length 1.94455   
     axis -90 7.62852e-016 20   XYZ
    dof rx rz
    limits (-45.0 90.0)
           (-70.0 20.0)
  end
  begin
     id 5 
     name ltoes
     direction 1.5356e-011 -4.21695e-011 1   
     length 0.978804   
     axis -90 7.62852e-016 20   XYZ
    dof rx
    limits (-90.0 20.0)
  end
  begin
     id 6 
     name rhipjoint
     direction -0.656883 -0.73503 0.168037   
     length 2.65927  
     axis 0 0 0  XYZ 
  end
  begin
     id 7 
     name rfemur
     direction -0.34202 -0.939693 0   
     length 7.58746   
     axis 0 0 -20   XYZ
    dof rx ry rz
    limits (-160.0 20.0)
           (-70.0 70.0)
           (-70.0 60.0)
  end
  begin
     id 8 
     name rtibia
     direction -0.342117 -0.939657 0   
     length 8.27303   
     axis 0 0 -20   XYZ
    dof rx
    limits (-10.0 170.0)
 end
 begin
     id 9 
     name rfoot
     direction -0.0685862 -0.188439 0.979687   
     length 2.13088  
     axis -90 -7.62852e-016 -20   XYZ
    dof rx rz
    limits (-45.0 90.0)
           (-20.0 70.0)
  end
  begin
     id 10 
     name rtoes
     direction -1.53538e-011 -4.21514e-011 1   
     length 1.07326   
     axis -90 -7.62852e-016 -20   XYZ
    dof rx
    limits (-90.0 20.0)
  end
  begin
     id 11 
     name lowerback
     direction -0.0358974 0.997216 0.065354   
     length 1.87174   
     axis 0 0 0   XYZ
    dof rx ry rz
    limits (-20.0 45.0)
           (-30.0 30.0)
           (-30.0 30.0)
  end
  begin
     id 12 
     name upperback
     direction 0.0202028 0.998565 0.0495864   
     length 1.8684   
     axis 0 0 0   XYZ
    dof rx ry rz
    limits (-20.0 45.0)
           (-30.0 30.0)
           (-30.0 30.0)
  end
  begin
     id 13 
     name thorax
     direction 0.0366367 0.999163 0.0182199   
     length 1.87747   
     axis 0 0 0   XYZ
    dof rx ry rz
    limits (-20.0 45.0)
           (-30.0 30.0)
           (-30.0 30.0)
  end
  begin
     id 14 
     name lowerneck
     direction 0.0284381 0.999578 -0.00598196   
     length 1.84583   
     axis 0 0 0   XYZ
    dof rx ry rz
    limits (-20.0 45.0)
           (-30.0 30.0)
           (-30.0 30.0)
  end
  begin
     id 15 
     name upperneck
     direction -0.0888142 0.993333 -0.0734973   
     length 1.84467   
     axis 0 0 0   XYZ
    dof rx ry rz
    limits (-20.0 45.0)
           (-30.0 30.0)
           (-30.0 30.0)
  end
  begin
     id 16
     name head
     direction -0.0296474 0.999102 -0.0302696  
     length 1.86566  
     axis 0 0 0   XYZ
    dof rx ry rz
    limits (-20.0 45.0)
           (-30.0 30.0)
           (-30.0 30.0)
  end
  begin
     id 17 
     name lclavicle
     direction 0.933925 0.35714 -0.0153523  
     length 3.93442  
     axis 0 0 0   XYZ
    dof ry rz
    limits (-20.0 10.0)
           (0.0 20.0)
  end
  begin
     id 18 
     name lhumerus
     direction 1 -4.48967e-011 2.12044e-027   
     length 5.78174   
     axis 180 -30 -90   XYZ
    dof rx ry rz
    limits (-60.0 90.0)
           (-90.0 90.0)
           (-90.0 90.0)
  end
  begin
     id 19
     name lradius
     direction 1 -4.48972e-011 6.45701e-027   
     length 3.53992   
     axis 180 -30 -90   XYZ
    dof rx
    limits (-10.0 170.0)
  end
  begin
     id 20
     name lwrist
     direction 1 -4.48981e-011 1.70244e-026   
     length 1.76996   
     axis -1.1226e-014 90 90   XYZ
    dof ry
    limits (-180.0 0.0)
 end
  begin
     id 21 
     name lhand
     direction 1 -4.4879e-011 3.40615e-026   
     length 0.550243   
     axis -2.17265e-014 90 90   XYZ
    dof rx rz
    limits (-90.0 90.0)
           (-45.0 45.0)
  end
  begin
     id 22 
     name lfingers
     direction 1 -4.49029e-011 6.80911e-026   
     length 0.44362   
     axis -4.34526e-014 90 90   XYZ
    dof rx
    limits (0.0 90.0)
  end
  begin
     id 23
     name lthumb
     direction 0.707107 -6.34923e-011 0.707107   
     length 0.636952   
     axis -90 45 -1.62303e-014   XYZ
    dof rx rz
    limits (-45.0 45.0)
           (-45.0 45.0)
  end
  begin
     id 24 
     name rclavicle
     direction -0.950832 0.305106 0.0531883   
     length 3.96125  
     axis 0 0 0   XYZ 
    dof ry rz
    limits (-10.0 20.0)
           (-20.0 0.0)
  end
  begin
     id 25 
     name rhumerus
     direction -1 -4.48961e-011 -6.07392e-030  
     length 5.79352   
     axis 180 30 90   XYZ
    dof rx ry rz
    limits (-90.0 60.0)
           (-90.0 90.0)
           (-90.0 90.0)
  end
  begin
     id 26 
     name rradius
     direction -1 -4.48964e-011 5.97548e-027   
     length 3.37081   
     axis 180 30 90   XYZ
    dof rx
    limits (-10.0 170.0)
  end
  begin
     id 27 
     name rwrist
     direction -1 -4.49021e-011 1.7023e-026   
     length 1.68541   
     axis -1.1226e-014 -90 -90   XYZ
    dof ry
    limits (-180.0 0.0)
  end
  begin
     id 28
     name rhand
     direction -1 -4.48867e-011 3.40563e-026   
     length 0.679827   
     axis -2.17265e-014 -90 -90   XYZ
    dof rx rz
    limits (-90.0 90.0)
           (-45.0 45.0)
  end
  begin
     id 29
     name rfingers
     direction -1 -4.49024e-011 6.80917e-026   
     length 0.548094   
     axis -4.34526e-014 -90 -90   XYZ
    dof rx
    limits (0.0 90.0)
  end
  begin
     id 30
     name rthumb
     direction -0.707107 -6.3488e-011 0.707107   
     length 0.786956   
     axis -90 -45 1.62303e-014   XYZ
    dof rx rz
    limits (-45.0 45.0)
           (-45.0 45.0)
  end
:hierarchy
  begin
    root lhipjoint rhipjoint lowerback
    lhipjoint lfemur
    lfemur ltibia
    ltibia lfoot
    lfoot ltoes
    rhipjoint rfemur
    rfemur rtibia
    rtibia rfoot
    rfoot rtoes
    lowerback upperback
    upperback thorax
    thorax lowerneck lclavicle rclavicle
    lowerneck upperneck
    upperneck head
    lclavicle lhumerus
    lhumerus lradius
    lradius lwrist
    lwrist lhand lthumb
    lhand lfingers
    rclavicle rhumerus
    rhumerus rradius
    rradius rwrist
    rwrist rhand rthumb
    rhand rfingers
  end

#!OML:ASF H:\Terrain\Patient Classification 1\PaulMetrics\Match1Take2\PaulMetrics.ASF
:FULLY-SPECIFIED
:DEGREES
328
root 0.567923 17.7518 -25.3883 12.8758 -39.4299 4.79898
lowerback -5.2529 -1.51121 -6.44701
upperback -6.28998 -1.90068 1.57103
thorax -3.34633 -0.695283 5.20977
lowerneck -0.962368 12.905 10.2766
upperneck 8.28334 18.212 -13.3117
head 4.81077 8.83626 -4.5955
rclavicle 9.86469e-014 -3.57812e-015
rhumerus -58.129 16.173 -90.5624
rradius 40.8777
rwrist -9.89148
rhand -9.15821 -28.1376
rfingers 7.12502
rthumb 16.7941 -57.4313
lclavicle 9.86469e-014 -3.57812e-015
lhumerus -48.0089 -20.5437 85.8629
lradius 77.6353
lwrist 10.0719
lhand -21.3021 -11.6128
lfingers 7.12502
lthumb 5.08267 18.3062
rfemur -35.0636 11.6367 1.56558
rtibia -9.85972e-014
rfoot -7.19869 -19.8095
rtoes -6.36875
lfemur -9.04778 -5.46598 -26.4448
ltibia 20.7862
lfoot -22.2657 -1.16605
ltoes -25.705
329
root 0.430249 17.7503 -25.3058 12.9791 -38.9814 4.5214
lowerback -5.10169 -1.5694 -6.45802
upperback -6.34541 -1.9856 1.74729
thorax -3.47272 -0.727114 5.40436
lowerneck 0.610023 12.275 10.1255
upperneck 5.97367 17.3015 -14.256
head 3.81588 8.4828 -5.1118
rclavicle -2.79852e-014 7.95139e-016
rhumerus -58.0249 16.2105 -90.4153
rradius 40.4304
rwrist -9.82726
rhand -9.07182 -27.8381
rfingers 7.12502
rthumb 16.8773 -57.1247
lclavicle -2.79852e-014 7.95139e-016
lhumerus -48.244 -20.3839 86.0171
lradius 77.3124
lwrist 9.50897
lhand -21.1665 -11.5142
lfingers 7.12502
lthumb 5.21363 18.4017
rfemur -34.7888 11.683 1.83219
rtibia -9.54166e-014
rfoot -7.50022 -19.5366
rtoes -1.5067
lfemur -8.46916 -5.11032 -25.9365
ltibia 20.797
lfoot -22.0117 -1.34173
ltoes -28.1775
330
root 0.288861 17.7285 -25.2177 12.7715 -38.5155 4.62249
lowerback -5.01486 -1.63682 -6.75041
upperback -6.32003 -2.07067 1.82991
thorax -3.47487 -0.755794 5.65675
lowerneck 1.92512 11.8579 10.1597
upperneck 4.09536 16.677 -15.1132
head 3.04107 8.26246 -5.56364
rclavicle -2.39473e-014 -1.27222e-014
rhumerus -58.0654 16.4086 -90.4469
rradius 40.4088
rwrist -9.98342
rhand -8.93983 -28.5845
rfingers 7.12502
rthumb 17.0044 -57.8602
lclavicle -2.39473e-014 -1.27222e-014
lhumerus -48.4339 -20.3279 86.2212
lradius 76.9956
lwrist 9.29718
lhand -21.0621 -12.2092
lfingers 7.12502
lthumb 5.31439 17.7041
rfemur -34.4711 11.7241 1.90721
rtibia 5.40694e-014
rfoot -6.22605 -20.0458
rtoes -4.28189
lfemur -7.76714 -5.12741 -25.7746
ltibia 20.8221
lfoot -21.7743 -0.999015
ltoes -31.1019
331
root 0.147461 17.7095 -25.1156 12.6515 -38.2441 4.837
lowerback -5.34011 -1.61866 -6.82961
upperback -6.28631 -2.02282 1.72032
thorax -3.26598 -0.740232 5.5771
lowerneck -0.717908 12.8436 9.95005
upperneck 8.00637 18.114 -13.1937
head 4.63288 8.80195 -4.55024
rclavicle -8.71795e-014 7.15625e-015
rhumerus -58.1283 16.1649 -90.3576
rradius 40.247
rwrist -9.79398
rhand -8.68143 -28.3072
rfingers 7.12502
rthumb 17.2531 -57.5613
lclavicle -8.71795e-014 7.15625e-015
lhumerus -48.6439 -20.4553 86.3636
lradius 76.6522
lwrist 9.3999
lhand -21.2377 -12.79
lfingers 7.12502
lthumb 5.14484 17.1276
rfemur -34.2866 11.8636 1.79146
rtibia 3.81667e-014
rfoot -4.78526 -20.6432
rtoes -9.95379
lfemur -7.30858 -5.42993 -25.7464
ltibia 20.9981
lfoot -21.577 -1.24254
ltoes -30.8009
332
root 0.00734943 17.6949 -25.0164 12.5739 -38.0752 4.95237
lowerback -5.52944 -1.56433 -6.88353
upperback -6.27855 -1.93536 1.69991
thorax -3.16458 -0.698833 5.58377
lowerneck -0.664264 12.7317 9.4361
upperneck 7.88292 17.9579 -13.1319
head 4.5158 8.71848 -4.48451
rclavicle 5.41626e-014 2.06736e-014
rhumerus -58.0149 15.7791 -89.9274
rradius 39.8237
rwrist -9.43219
rhand -8.8944 -28.1525
rfingers 7.12502
rthumb 17.0481 -57.4244
lclavicle 5.41626e-014 2.06736e-014
lhumerus -48.8396 -20.4211 86.5906
lradius 76.2306
lwrist 9.537
lhand -21.4938 -12.6364
lfingers 7.12502
lthumb 4.89752 17.287
rfemur -34.0088 12.1387 1.75194
rtibia 6.52014e-014
rfoot -3.34971 -20.871
rtoes -14.2881
lfemur -6.87093 -5.69947 -25.6362
ltibia 21.2069
lfoot -21.3343 -1.74439
ltoes -29.7606
333
root -0.130916 17.6841 -24.9256 12.4882 -37.6371 4.90507
lowerback -5.38038 -1.62479 -6.91197
upperback -6.26866 -2.02338 1.74422
thorax -3.2226 -0.738261 5.64742
lowerneck -0.801636 12.7226 8.97489
upperneck 8.21274 17.9483 -12.7953
head 4.56443 8.69779 -4.30541
rclavicle 2.9768e-014 2.62396e-014
rhumerus -57.7576 15.5542 -89.69
rradius 39.4642
rwrist -9.16239
rhand -9.12462 -29.2389
rfingers 7.12502
rthumb 16.8265 -58.5299
lclavicle 2.9768e-014 2.62396e-014
lhumerus -49.0117 -20.2304 86.6691
lradius 75.7587
lwrist 9.35348
lhand -21.9469 -11.7928
lfingers 7.12502
lthumb 4.46008 18.1403
rfemur -35.4136 12.3428 2.0805
rtibia 3.82153
rfoot -3.7632 -20.6576
rtoes -16.7977
lfemur -6.28373 -6.00656 -25.3423
ltibia 21.3374
lfoot -21.0806 -1.92318
ltoes -30.2687
334
root -0.274626 17.6739 -24.829 12.443 -37.1054 4.67449
lowerback -5.30252 -1.70338 -6.72581
upperback -6.17884 -2.13433 1.70375
thorax -3.15905 -0.805977 5.49532
lowerneck 0.736178 12.0314 9.17951
upperneck 5.61606 16.9268 -14.0713
head 3.54489 8.29747 -4.97585
rclavicle -1.03275e-013 -2.5842e-014
rhumerus -57.688 15.5837 -89.957
rradius 39.375
rwrist -9.30272
rhand -9.14562 -29.6093
rfingers 7.12502
rthumb 16.8063 -58.9019
lclavicle -1.03275e-013 -2.5842e-014
lhumerus -49.1643 -20.0826 86.4999
lradius 75.2006
lwrist 8.86179
lhand -22.5662 -11.3421
lfingers 7.12502
lthumb 3.86199 18.6026
rfemur -36.4783 12.5036 2.56882
rtibia 7.33365
rfoot -4.07657 -20.7333
rtoes -18.1306
lfemur -5.57241 -6.16252 -24.8734
ltibia 21.4332
lfoot -20.6587 -2.19405
ltoes -29.9875
335
root -0.425264 17.6643 -24.7288 12.4084 -36.7382 4.37742
lowerback -5.29667 -1.68973 -6.57461
upperback -6.08434 -2.11477 1.73719
thorax -3.06698 -0.806213 5.44346
lowerneck -0.896094 12.9683 9.60165
upperneck 7.83508 18.2579 -13.1018
head 4.58688 8.86341 -4.45202
rclavicle 7.47586e-014 -9.14409e-015
rhumerus -57.8656 15.6677 -90.1251
rradius 39.4543
rwrist -9.57813
rhand -9.16614 -29.36
rfingers 7.12502
rthumb 16.7865 -58.6544
lclavicle 7.47586e-014 -9.14409e-015
lhumerus -49.3229 -19.9087 86.5018
lradius 74.5948
lwrist 8.54201
lhand -22.6847 -11.9771
lfingers 7.12502
lthumb 3.74759 17.9697
rfemur -37.1462 12.8205 3.04763
rtibia 9.98405
rfoot -3.32162 -21.3254
rtoes -21.3211
lfemur -4.80652 -6.06131 -24.3539
ltibia 21.5015
lfoot -19.9774 -2.74037
ltoes -28.3827
336
root -0.577343 17.6715 -24.6299 12.3565 -36.4787 4.2181
lowerback -5.2689 -1.672 -6.67299
upperback -6.08476 -2.08677 1.88676
thorax -3.08063 -0.784327 5.6588
lowerneck -0.931805 12.974 9.32489
upperneck 7.79672 18.2525 -12.9467
head 4.54031 8.85881 -4.3678
rclavicle 2.05649e-014 -2.54444e-014
rhumerus -57.8157 15.5516 -89.863
rradius 39.1875
rwrist -9.42869
rhand -9.20889 -29.6256
rfingers 7.12502
rthumb 16.7454 -58.9234
lclavicle 2.05649e-014 -2.54444e-014
lhumerus -49.5969 -19.4782 86.7378
lradius 74.0803
lwrist 8.4187
lhand -22.0391 -12.4846
lfingers 7.12502
lthumb 4.37103 17.4502
rfemur -37.7678 13.1497 3.31458
rtibia 12.2479
rfoot -2.19228 -21.3784
rtoes -23.5994
lfemur -4.17357 -6.0205 -23.9811
ltibia 21.6083
lfoot -19.234 -3.01937
ltoes -28.2707
